<svg width="354.42" height="49.41" xml:space="preserve" xmlns="http://www.w3.org/2000/svg"><path d="M47.39 24.94c0-.95-.54-1.5-1.5-1.5h-2.58v-9.85h10.87c3.47 0 4.96 1.5 4.96 4.96v18.69c0 .95.54 1.5 1.5 1.5h2.58v9.85H52.35c-3.47 0-4.96-1.5-4.96-4.96zM48.27 0h9.85v9.51h-9.85zm34.12 12.77c7.07 0 9.17 2.45 9.17 2.45h.14s-.07-.68-.07-1.56v-2.31c0-.95-.54-1.5-1.5-1.5h-2.58V0h10.87c3.47 0 4.96 1.5 4.96 4.96v32.28c0 .95.54 1.5 1.5 1.5h2.58v9.85H96.99c-3.33 0-4.55-1.7-4.55-3.33v-.61h-.14s-2.92 4.76-10.13 4.76c-9.51 0-15.77-7.48-15.77-18.35.02-11.08 6.68-18.29 15.99-18.29zm9.58 18.29c0-4.21-2.24-8.36-6.86-8.36-3.67 0-6.86 2.99-6.86 8.36 0 5.23 2.79 8.63 6.86 8.63 3.53 0 6.86-2.58 6.86-8.63zm36.76-18.29c10.33 0 16.18 7.2 16.18 16.92 0 1.16-.27 3.53-.27 3.53h-22.09c.88 4.42 4.42 6.39 8.16 6.39 5.03 0 9.31-3.67 9.31-3.67l4.69 7.88s-5.64 5.57-14.95 5.57c-12.5 0-19.23-9.04-19.23-18.35-.01-10.25 6.92-18.27 18.2-18.27zm4.15 13.33c0-2.17-1.7-4.49-4.15-4.49-3.4 0-5.1 1.9-5.84 4.49zm19.64-1.16c0-.95-.54-1.5-1.5-1.5h-2.58v-9.85h10.47c3.19 0 4.89 1.56 4.89 3.94v.48c0 .34-.07.82-.07.82h.14c1.63-2.72 4.89-6.05 11.08-6.05 7.07 0 12.57 3.26 12.57 13.12v11.35c0 .95.54 1.5 1.5 1.5h2.58v9.85h-10.87c-3.47 0-4.96-1.5-4.96-4.96V28.07c0-3.26-1.29-4.62-3.87-4.62-3.67 0-5.91 2.04-6.93 5.03-.48 1.36-.68 2.92-.68 4.62v15.5h-11.76V24.94zm45.6-2.18h-4.49v-9.17h4.83V4.14h11.42v9.45h7.34v9.17h-7.34v11.35c0 3.94 4.01 4.49 6.25 4.49.95 0 1.56-.07 1.56-.07v10.19s-1.29.2-3.2.2c-5.57 0-16.38-1.5-16.38-13.25V22.76zm41.12-9.99c10.33 0 16.17 7.2 16.17 16.92 0 1.16-.27 3.53-.27 3.53h-22.09c.88 4.42 4.42 6.39 8.16 6.39 5.03 0 9.31-3.67 9.31-3.67l4.69 7.88s-5.64 5.57-14.95 5.57c-12.5 0-19.23-9.04-19.23-18.35-.01-10.25 6.92-18.27 18.21-18.27zm4.14 13.33c0-2.17-1.7-4.49-4.15-4.49-3.4 0-5.1 1.9-5.84 4.49zm35.75-13.33c4.89 0 12.91 1.9 12.91 8.22v4.83h-10.19v-1.83c0-1.09-1.29-1.5-2.72-1.5-4.96 0-7.95 3.74-7.95 8.43 0 5.98 4.48 8.36 8.83 8.36 5.03 0 9.65-4.55 9.65-4.55l4.69 7.88s-5.5 6.8-15.5 6.8c-12.51 0-19.51-8.7-19.51-18.35.01-9.25 6.53-18.29 19.79-18.29zm37.03 0c11.08 0 19.85 7.41 19.85 18.42 0 10.94-8.77 18.21-19.78 18.21s-19.78-7.27-19.78-18.21c.01-11.01 8.77-18.42 19.71-18.42zm.07 26.85c4.28 0 7.95-3.19 7.95-8.43 0-5.3-3.67-8.63-7.95-8.63s-7.95 3.33-7.95 8.63c0 5.24 3.67 8.43 7.95 8.43z" style="fill:#05426a"/><path d="M344.56 25.78h9.86v9.52h-9.86zM0 25.78h9.86v9.52H0zm21.82 0h9.86v9.52h-9.86z" style="fill:#f5b333"/></svg>